<svg xmlns="http://www.w3.org/2000/svg" xmlns:xlink="http://www.w3.org/1999/xlink" version="1.1" id="Layer_1" x="0px" y="0px" width="120px" height="120px" viewBox="4.4 -8.8 88.0 118.8" enable-background="new 0 0 88 88" xml:space="preserve">
<g>
	<path fill="#000000" d="M2.777,45.949c0-21.912,17.826-39.738,39.737-39.738s39.737,17.826,39.737,39.738   S64.425,85.685,42.514,85.685S2.777,67.86,2.777,45.949z M74.051,45.949c0-17.39-14.147-31.538-31.537-31.538   S10.976,28.559,10.976,45.949s14.148,31.538,31.538,31.538S74.051,63.339,74.051,45.949z"/>
</g>
<g>
	<path fill="#000000" d="M44.351,62.008L44.351,62.008c-0.983,0.983-2.578,0.983-3.561,0L20.624,41.841   c-0.983-0.983-0.983-2.578,0-3.561l0,0c0.983-0.983,2.578-0.983,3.561,0l18.376,18.376l0.003-0.003l18.373-18.373   c0.983-0.983,2.578-0.983,3.561,0l0,0c0.983,0.983,0.983,2.578,0,3.561L44.331,62.008c-0.983,0.983-2.578,0.983-3.561,0l0,0"/>
</g><!-- 
<text x="0.0" y="103.4" font-size="4.4" font-weight="bold" font-family="Helvetica Neue, Helvetica, Arial-Unicode, Arial, Sans-serif" fill="#000000">Created by Bradley Wilton</text><text x="0.0" y="107.8" font-size="4.4" font-weight="bold" font-family="Helvetica Neue, Helvetica, Arial-Unicode, Arial, Sans-serif" fill="#000000">from the Noun Project</text> -->
</svg>