<svg xmlns="http://www.w3.org/2000/svg" xmlns:xlink="http://www.w3.org/1999/xlink" version="1.1" id="Layer_1" x="0px" y="0px" width="120px" height="120px" viewBox="4.4 -8.8 88.0 118.8" enable-background="new 0 0 88 88" xml:space="preserve">
<g>
	<path fill="#000000" d="M82.251,45.948c0,21.912-17.826,39.738-39.737,39.738S2.776,67.86,2.776,45.948S20.603,6.211,42.514,6.211   S82.251,24.036,82.251,45.948z M10.977,45.948c0,17.39,14.147,31.538,31.537,31.538s31.538-14.147,31.538-31.538   S59.903,14.41,42.514,14.41S10.977,28.558,10.977,45.948z"/>
</g>
<g>
	<path fill="#000000" d="M40.676,29.888L40.676,29.888c0.983-0.983,2.578-0.983,3.561,0l20.167,20.167   c0.983,0.983,0.983,2.578,0,3.561l0,0c-0.983,0.983-2.578,0.983-3.561,0L42.467,35.24l-0.003,0.003L24.091,53.616   c-0.983,0.983-2.578,0.983-3.561,0l0,0c-0.983-0.983-0.983-2.578,0-3.561l20.167-20.167c0.983-0.983,2.578-0.983,3.561,0l0,0"/>
</g><!-- 
<text x="0.0" y="103.4" font-size="4.4" font-weight="bold" font-family="Helvetica Neue, Helvetica, Arial-Unicode, Arial, Sans-serif" fill="#000000">Created by Bradley Wilton</text><text x="0.0" y="107.8" font-size="4.4" font-weight="bold" font-family="Helvetica Neue, Helvetica, Arial-Unicode, Arial, Sans-serif" fill="#000000">from the Noun Project</text> --></svg>